<svg width="60" height="60" viewBox="0 0 60 60" fill="none" xmlns="http://www.w3.org/2000/svg">
<circle r="30" transform="matrix(-1 0 0 1 30 30)" fill="#11344F"/>
<path d="M41.4612 31.37L25.2112 46.37C25.0237 46.5431 24.8042 46.6444 24.5766 46.663C24.349 46.6817 24.1219 46.6169 23.9199 46.4758C23.7179 46.3347 23.5487 46.1226 23.4306 45.8625C23.3125 45.6023 23.25 45.3041 23.25 45V15C23.2498 14.6958 23.3121 14.3974 23.4301 14.137C23.5481 13.8766 23.7173 13.6643 23.9193 13.523C24.1214 13.3817 24.3486 13.3168 24.5763 13.3354C24.804 13.354 25.0236 13.4553 25.2112 13.6284L41.4612 28.6284C41.6268 28.7824 41.762 28.9875 41.8553 29.2262C41.9487 29.4648 41.9974 29.73 41.9974 29.9992C41.9974 30.2684 41.9487 30.5336 41.8553 30.7722C41.762 31.0109 41.6268 31.216 41.4612 31.37Z" fill="white"/>
</svg>
