<svg width="60" height="60" viewBox="0 0 60 60" fill="none" xmlns="http://www.w3.org/2000/svg">
<circle cx="30" cy="30" r="30" fill="#4E6297"/>
<path d="M43.432 17.8335C43.2995 17.8198 43.1659 17.8198 43.0334 17.8335H15.8112C15.6367 17.8362 15.4634 17.8623 15.2959 17.9113L29.3445 31.9015L43.432 17.8335Z" fill="white"/>
<path d="M44.8709 19.1846L30.7154 33.2818C30.351 33.6439 29.8582 33.8472 29.3445 33.8472C28.8308 33.8472 28.338 33.6439 27.9737 33.2818L13.9445 19.2915C13.9014 19.45 13.8785 19.6134 13.8765 19.7776V39.2221C13.8765 39.7378 14.0813 40.2323 14.446 40.597C14.8106 40.9617 15.3052 41.1665 15.8209 41.1665H43.0431C43.5588 41.1665 44.0534 40.9617 44.4181 40.597C44.7827 40.2323 44.9876 39.7378 44.9876 39.2221V19.7776C44.9798 19.5751 44.9405 19.375 44.8709 19.1846ZM17.1529 39.2221H15.8015V37.8318L22.8695 30.8221L24.2404 32.1929L17.1529 39.2221ZM43.0237 39.2221H41.6626L34.5751 32.1929L35.9459 30.8221L43.014 37.8318L43.0237 39.2221Z" fill="white"/>
</svg>
