<svg width="60" height="60" viewBox="0 0 60 60" fill="none" xmlns="http://www.w3.org/2000/svg">
<circle cx="30" cy="30" r="30" fill="#4E6297"/>
<path d="M43.5 20.7285C43.5 18.4824 41.5181 16.5005 39.272 16.5005H22.228C19.9819 16.5005 18 18.4824 18 20.7285V37.7727C18 40.0188 19.9819 42.0007 22.228 42.0007H30.8161V32.3556H27.6451V28.1275H30.8161V26.4099C30.8161 23.5031 32.9301 20.9928 35.5725 20.9928H39.0078V25.2208H35.5725C35.1762 25.2208 34.7798 25.6172 34.7798 26.4099V28.1275H39.0078V32.3556H34.7798V42.0007H39.272C41.5181 42.0007 43.5 40.0188 43.5 37.7727V20.7285Z" fill="white"/>
</svg>
