<svg width="60" height="60" viewBox="0 0 60 60" fill="none" xmlns="http://www.w3.org/2000/svg">
<circle cx="30" cy="30" r="30" fill="#4E6297"/>
<path d="M29.5001 14.9165C23.8563 14.9165 19.2917 19.4811 19.2917 25.1248C19.2917 32.7811 29.5001 44.0832 29.5001 44.0832C29.5001 44.0832 39.7084 32.7811 39.7084 25.1248C39.7084 19.4811 35.1438 14.9165 29.5001 14.9165ZM29.5001 28.7707C28.5331 28.7707 27.6058 28.3866 26.9221 27.7028C26.2384 27.0191 25.8542 26.0918 25.8542 25.1248C25.8542 24.1579 26.2384 23.2306 26.9221 22.5468C27.6058 21.8631 28.5331 21.479 29.5001 21.479C30.467 21.479 31.3943 21.8631 32.0781 22.5468C32.7618 23.2306 33.1459 24.1579 33.1459 25.1248C33.1459 26.0918 32.7618 27.0191 32.0781 27.7028C31.3943 28.3866 30.467 28.7707 29.5001 28.7707Z" fill="white"/>
</svg>
