<svg width="60" height="60" viewBox="0 0 60 60" fill="none" xmlns="http://www.w3.org/2000/svg">
<g clip-path="url(#clip0)">
<path d="M45.7822 26.0671C45.7482 26.0661 45.7146 26.067 45.6808 26.0668C44.9301 24.6407 43.4423 23.7217 41.7922 23.7217C41.1672 23.7217 40.5729 23.8536 40.0341 24.0899C39.4822 23.8492 38.8836 23.7217 38.2766 23.7217C36.5868 23.7217 35.1178 24.6809 34.3827 26.0828C32.4306 26.2501 30.8387 27.698 30.4549 29.5811H27.4953C27.4902 29.5811 27.485 29.5811 27.4799 29.5812C24.0945 29.6402 20.8579 31.023 18.4395 33.589C16.1554 36.0125 14.8975 39.1828 14.8975 42.5159C14.8975 43.5751 14.485 44.5709 13.736 45.3199L10.2037 48.8522C9.86048 49.1955 9.86048 49.752 10.2037 50.0952C10.547 50.4383 11.1035 50.4383 11.4466 50.0952L14.9789 46.5629C16.0599 45.4818 16.6552 44.0446 16.6552 42.5159C16.6552 36.4369 21.4119 31.4494 27.5028 31.3389H35.6982C37.152 31.3389 38.3349 32.5218 38.3349 33.9756C38.3349 35.3477 37.2635 36.6123 35.6143 36.6123C33.7186 36.6123 31.9068 37.2042 30.375 38.3237C30.374 38.3244 30.3731 38.325 30.3723 38.3257C29.9994 38.5991 29.6503 38.8978 29.3346 39.2134C29.0007 39.5473 28.9903 40.0852 29.3108 40.4317C29.6315 40.7784 30.1686 40.8096 30.5273 40.5028L30.9764 40.1187C32.3738 40.9045 33.9279 41.2997 35.6982 41.2997C37.7036 41.2997 39.6453 40.4607 41.0251 38.9979C42.3131 37.6325 43.0224 35.8488 43.0224 33.9755V30.4598C43.0224 29.7418 43.3059 29.0707 43.8207 28.5698C44.3353 28.0693 45.014 27.804 45.7338 27.8242C47.1466 27.863 48.2959 29.0781 48.2959 30.533V35.3011C48.2959 38.5204 47.0799 41.5845 44.8713 43.9311C40.2907 48.4549 34.9476 51.6091 28.9899 53.3068C26.8292 53.9225 24.843 55.0921 23.2459 56.6893L22.4437 57.4998C22.1005 57.843 22.1005 58.3996 22.4437 58.7427C22.6153 58.9143 22.8403 59 23.0652 59C23.29 59 23.515 58.9143 23.6866 58.7426L24.7364 57.6928C26.1226 56.3067 27.5979 55.5312 29.4715 54.9973C35.7215 53.2163 41.3222 49.9099 46.1179 45.1703C46.1252 45.163 46.1325 45.1557 46.1396 45.1482C48.6635 42.4726 50.0534 38.9755 50.0534 35.3011V30.533C50.0538 28.1351 48.1376 26.1315 45.7822 26.0671ZM33.8856 27.9731C33.884 28.0207 33.8819 28.0682 33.8819 28.1161V29.5809H32.2753C32.5409 28.8319 33.136 28.2377 33.8856 27.9731ZM35.6397 29.5809V28.1161C35.6397 26.6623 36.8226 25.4794 38.2765 25.4794H38.2788C37.7258 26.2144 37.3975 27.1275 37.3975 28.1161V29.923C36.8745 29.7029 36.3004 29.5809 35.6983 29.5809H35.6397ZM42.595 27.31C41.7372 28.1446 41.2647 29.2632 41.2647 30.4598V33.9755C41.2647 35.3986 40.7256 36.7539 39.7465 37.7917C38.6819 38.9203 37.2443 39.5419 35.6983 39.5419C34.6753 39.5419 33.7458 39.4175 32.6926 38.9957C33.692 38.5443 34.6678 38.37 35.6983 38.37C38.1215 38.37 40.0929 36.3987 40.0929 33.9755C40.0929 32.9543 39.7418 32.0142 39.1554 31.2673V28.1161C39.1554 26.6623 40.3383 25.4794 41.7921 25.4794C42.6042 25.4794 43.3494 25.8516 43.8402 26.4568C43.3854 26.664 42.9647 26.9503 42.595 27.31Z" fill="white"/>
<path d="M38.335 22.8477C38.8205 22.8477 39.2139 22.4543 39.2139 21.9688V16.9827C39.331 17.037 39.4572 17.0652 39.5838 17.0652C39.8087 17.0652 40.0337 16.9794 40.2053 16.8079C40.5486 16.4645 40.5486 15.9081 40.2053 15.5649C40.1656 15.5251 38.9871 14.346 38.9469 14.3073C38.7847 14.1498 38.5715 14.0649 38.3559 14.0597C38.1028 14.0556 37.8783 14.1527 37.7135 14.3161L36.4647 15.5649C36.1215 15.9082 36.1215 16.4646 36.4647 16.8079C36.733 17.076 37.1309 17.1335 37.4561 16.9827V21.9688C37.4561 22.4543 37.8495 22.8477 38.335 22.8477Z" fill="white"/>
<path d="M23.6904 9.87559C23.8622 10.0456 24.0894 10.1329 24.3118 10.1329C24.5347 10.1329 24.7612 10.0457 24.9333 9.87559L26.182 8.62684C26.5253 8.28348 26.5253 7.72707 26.182 7.38383C25.9139 7.1157 25.5158 7.05816 25.1907 7.20898V-0.121094C25.1907 -0.606602 24.7972 -1 24.3118 -1C23.8264 -1 23.4329 -0.606602 23.4329 -0.121094V7.20887C23.1078 7.05793 22.7098 7.11559 22.4415 7.38383C22.0983 7.72707 22.0983 8.28359 22.4415 8.62672L23.6904 9.87559Z" fill="white"/>
<path d="M43.3072 11.0004C46.0487 8.25883 46.0487 3.7982 43.3072 1.0566C40.5655 -1.68488 36.1049 -1.68488 33.3635 1.0566C32.0373 2.3827 31.3069 4.14848 31.3069 6.02852C31.3069 7.90844 32.0372 9.6741 33.3634 11.0004C36.105 13.7418 40.5656 13.7419 43.3072 11.0004ZM34.6065 2.29973C35.6345 1.27164 36.985 0.757656 38.3353 0.757656C39.6857 0.757656 41.0361 1.27164 42.0641 2.29973C44.1203 4.35578 44.1203 7.70137 42.0641 9.75742C40.0081 11.8137 36.6625 11.8137 34.6064 9.75742C33.6122 8.76332 33.0647 7.43898 33.0647 6.02863C33.0647 4.61805 33.6122 3.29383 34.6065 2.29973Z" fill="white"/>
<path d="M38.3353 9.54395C40.2738 9.54395 41.8509 7.96684 41.8509 6.02832C41.8509 4.0898 40.2738 2.5127 38.3353 2.5127C37.8497 2.5127 37.4563 2.90609 37.4563 3.3916C37.4563 3.87711 37.8497 4.27051 38.3353 4.27051C39.3045 4.27051 40.0931 5.05906 40.0931 6.02832C40.0931 6.99758 39.3045 7.78613 38.3353 7.78613C37.884 7.78613 37.4546 7.61434 37.1263 7.3025C36.7743 6.96816 36.218 6.9827 35.8837 7.33449C35.5494 7.68652 35.5639 8.24281 35.9157 8.57715C36.5723 9.20059 37.4315 9.54395 38.3353 9.54395Z" fill="white"/>
<path d="M19.0326 29.1031C19.8036 29.8741 20.9055 30.0892 21.9061 29.6746C22.9101 29.2587 23.5338 28.3253 23.5338 27.2386L23.5336 24.2241C23.5336 24.2154 23.5379 24.2097 23.5411 24.2065C24.9552 24.4586 26.4044 24.004 27.4195 22.9888C28.4308 21.9775 28.887 20.5315 28.6399 19.1211C28.638 19.1106 28.6395 19.1045 28.6384 19.1029L31.6693 19.1031C32.756 19.1031 33.6894 18.4795 34.1053 17.4754C34.5212 16.4713 34.3021 15.3704 33.5337 14.6018L29.5915 10.6597C28.8231 9.89126 27.722 9.67259 26.7181 10.0881C25.7141 10.504 25.0904 11.4374 25.0904 12.5242L25.0948 15.5502C25.0929 15.552 25.0868 15.5558 25.0724 15.5534C23.6615 15.3064 22.216 15.7626 21.2048 16.7738C20.1938 17.7848 19.7373 19.2304 19.9839 20.6406C19.9858 20.6517 19.984 20.6577 19.9847 20.6595H16.955C15.8683 20.6595 14.9349 21.2832 14.519 22.2872C14.1031 23.2912 14.322 24.3923 15.0905 25.1608L19.0326 29.1031ZM16.143 22.9601C16.1957 22.8329 16.41 22.4175 16.955 22.4175H19.9874C20.5055 22.4175 20.9936 22.1904 21.3264 21.7942C21.665 21.3913 21.8068 20.8606 21.7154 20.3381C21.5673 19.4913 21.8411 18.6236 22.4478 18.0169C23.0543 17.4102 23.9218 17.1359 24.7691 17.2851C25.2916 17.3766 25.8224 17.2349 26.2254 16.8965C26.6215 16.5638 26.8486 16.0758 26.8486 15.5579L26.8484 12.5242C26.8484 11.9794 27.2637 11.765 27.391 11.7122C27.5183 11.6595 27.9636 11.5175 28.3488 11.9028L32.2908 15.845C32.6761 16.2302 32.5341 16.6755 32.4814 16.8027C32.4286 16.93 32.2143 17.3453 31.6695 17.3453L28.6358 17.3451C28.6358 17.3451 28.6355 17.3451 28.6354 17.3451C28.1177 17.3451 27.6298 17.5722 27.2972 17.9681C26.9587 18.3711 26.817 18.9019 26.9086 19.4245C27.057 20.2714 26.7834 21.1391 26.1767 21.7459C25.5577 22.3649 24.7084 22.6308 23.8452 22.4752C23.3364 22.3833 22.8152 22.5223 22.4156 22.8564C22.009 23.1961 21.7758 23.6948 21.7759 24.2243L21.7761 27.2388C21.7761 27.7837 21.3609 27.998 21.2336 28.0508C21.1063 28.1036 20.6613 28.2458 20.2757 27.8602L16.3336 23.9183C15.9481 23.5327 16.0902 23.0874 16.143 22.9601Z" fill="white"/>
</g>
<defs>
<clipPath id="clip0">
<rect width="60" height="60" fill="white"/>
</clipPath>
</defs>
</svg>
