<svg width="60" height="60" viewBox="0 0 60 60" fill="none" xmlns="http://www.w3.org/2000/svg">
<g clip-path="url(#clip0)">
<path d="M57.5 25.6716C55.8101 24.1846 53.525 23.5709 51.2324 23.9879C49.2995 24.3394 47.8965 26.0209 47.8965 27.986V30.8776C47.8965 32.6598 49.0502 34.2088 50.7067 34.7442C48.9772 42.3368 43.2079 48.3829 35.7025 50.4691C35.0989 48.9548 33.6135 47.9014 31.9249 47.9014H28.1057C26.0832 47.9014 24.3521 49.4127 24.079 51.4165C23.9287 52.5186 23.9926 53.585 24.2535 54.577C23.4182 54.4761 22.6222 54.3307 21.8475 54.1362C10.0189 51.1651 1.75781 40.5606 1.75781 28.3475C1.75781 13.686 13.6846 1.75781 28.3446 1.75781C39.7928 1.75781 49.8606 9.05191 53.5042 19.7306C53.1449 19.6671 52.7695 19.8323 52.5826 20.1694C52.3473 20.5939 52.5007 21.1288 52.9252 21.3642L54.4903 22.232C54.5317 22.257 54.5752 22.278 54.6202 22.2959C54.6211 22.2962 54.622 22.2966 54.6228 22.2969C54.6901 22.3235 54.7605 22.3419 54.8333 22.3513C54.8366 22.3518 54.8399 22.3519 54.8432 22.3522C54.873 22.3557 54.9033 22.3576 54.9338 22.358C54.938 22.3581 54.9423 22.3588 54.9465 22.3588C54.9504 22.3588 54.9543 22.3581 54.9581 22.358C54.9901 22.3575 55.0222 22.3554 55.0545 22.3513C55.0604 22.3506 55.0663 22.3504 55.0723 22.3494C55.1027 22.345 55.1333 22.339 55.1639 22.3311C55.1681 22.3301 55.172 22.3286 55.1761 22.3274C55.1803 22.3262 55.1847 22.3259 55.1889 22.3247C55.2038 22.3205 55.218 22.3148 55.2326 22.3098C55.2402 22.3072 55.248 22.3048 55.2557 22.302C55.277 22.294 55.2976 22.2848 55.3181 22.2752C55.3236 22.2727 55.3294 22.2703 55.3349 22.2676C55.357 22.2567 55.3785 22.2446 55.3996 22.232C55.4027 22.23 55.406 22.2284 55.4092 22.2264C55.4325 22.2118 55.4551 22.1962 55.477 22.1797C55.4774 22.1795 55.4779 22.1791 55.4782 22.1789C55.5743 22.1058 55.6556 22.0136 55.7154 21.9059L56.5996 20.3102C56.8348 19.8857 56.6813 19.3507 56.2567 19.1155C55.9032 18.9197 55.4736 18.994 55.2038 19.2694C51.35 7.82566 40.5877 0 28.3446 0C20.7735 0 13.6555 2.94867 8.30191 8.30285C2.94832 13.657 0 20.7757 0 28.3475C0 34.7923 2.10762 40.8654 6.09492 45.9105C9.96211 50.8036 15.4045 54.3302 21.4194 55.8411C22.5652 56.1288 23.748 56.3189 25.0204 56.4203C25.2789 56.858 25.5832 57.2713 25.9359 57.6529C27.3275 59.1581 29.2689 60 31.3164 60C31.4586 60 31.6015 59.9959 31.7446 59.9877C39.122 59.5657 46.0616 56.4439 51.285 51.1973C56.5116 45.9475 59.603 38.987 59.9897 31.5984C60.1084 29.3286 59.2009 27.1684 57.5 25.6716ZM58.2342 31.5066C57.4801 45.919 46.0488 57.4088 31.6441 58.2328C29.9666 58.3268 28.357 57.6823 27.2265 56.4595C26.0682 55.2067 25.569 53.5001 25.8207 51.654C25.9758 50.5168 26.9582 49.6593 28.1058 49.6593H31.925C33.0579 49.6593 34.0282 50.4954 34.2022 51.611V52.005C34.2022 52.4905 34.5956 52.8839 35.0811 52.8839C35.4894 52.8839 35.8317 52.6051 35.9304 52.2278C39.9975 51.1443 43.6815 48.9635 46.6184 45.892C49.557 42.8189 51.5694 39.0387 52.467 34.9226C52.8393 34.8204 53.1131 34.4805 53.1131 34.0758C53.1131 33.5903 52.7197 33.1969 52.2342 33.1969H51.8217L51.5482 33.1471C50.4509 32.9476 49.6543 31.993 49.6543 30.8775V27.9859C49.6543 26.8707 50.4503 25.9166 51.5468 25.7173C53.3344 25.3928 55.0358 25.8448 56.3387 26.9912C57.6339 28.131 58.3248 29.7766 58.2342 31.5066Z" fill="white"/>
<path d="M44.5466 9.18511C44.2035 8.84198 43.647 8.84187 43.3038 9.18522L9.30133 43.1912C8.95809 43.5344 8.95821 44.0909 9.30133 44.4341C9.47301 44.6056 9.6979 44.6914 9.92278 44.6914C10.1477 44.6914 10.3727 44.6056 10.5443 44.4339L44.5468 10.4281C44.8899 10.0849 44.8899 9.52835 44.5466 9.18511Z" fill="white"/>
<path d="M12.5991 20.3063L7.74312 24.5499C7.13316 25.0829 7.51144 26.0916 8.32179 26.0916H14.1842C14.6698 26.0916 15.0636 25.6934 15.0636 25.2075C15.0636 24.7218 14.6698 24.3281 14.1842 24.3281H10.6729L13.759 21.6346C16.4003 19.3291 14.7712 14.9473 11.253 14.9473C7.64796 14.9473 6.42312 19.64 8.32402 19.64C8.80941 19.64 9.20339 19.2465 9.20339 18.7606C9.20339 17.6303 10.1228 16.7107 11.253 16.7107C13.1383 16.7107 14.0239 19.0615 12.5991 20.3063Z" fill="white"/>
<path d="M17.3382 17.1812L15.4643 22.5782C15.2661 23.1493 15.6908 23.7461 16.295 23.7461H20.6894C20.6892 25.252 20.6138 25.4997 20.9481 25.8337C21.5012 26.3873 22.4529 25.9906 22.4529 25.2096V23.7461H23.9141C24.3998 23.7461 24.7935 23.3525 24.7935 22.8666C24.7935 22.3632 24.3884 21.9827 23.9141 21.9827H22.4529L22.4483 15.8279C22.4478 15.3425 22.0543 14.9492 21.5689 14.9492C21.0834 14.9492 20.6895 15.3427 20.6895 15.8286V21.9826H17.5352C17.5534 21.9303 18.9899 17.8051 19.004 17.7515C19.3158 16.5651 17.6988 16.1422 17.3382 17.1812Z" fill="white"/>
<path d="M32.3754 40.0672C32.5014 40.1302 32.6352 40.16 32.767 40.16C33.0894 40.16 33.3998 39.9818 33.5537 39.6737L38.2391 30.2865C38.375 30.0142 38.3604 29.6909 38.2002 29.432C38.0401 29.1731 37.7575 29.0156 37.4531 29.0156H32.0676C31.5825 29.0156 31.1892 29.4089 31.1892 29.8942C31.1892 30.3795 31.5825 30.7727 32.0676 30.7727H36.0328L31.9819 38.889C31.7651 39.323 31.9413 39.8505 32.3754 40.0672Z" fill="white"/>
</g>
<defs>
<clipPath id="clip0">
<rect width="60" height="60" fill="white"/>
</clipPath>
</defs>
</svg>
