<svg width="60" height="60" viewBox="0 0 60 60" fill="none" xmlns="http://www.w3.org/2000/svg">
<g clip-path="url(#clip0)">
<path d="M49.9393 2.53125C48.3284 0.920156 46.1515 0 43.8281 0H17.55C15.8727 0 15.1774 2.12238 16.4625 3.12293C18.1021 4.4025 19.0724 6.42398 19.0724 8.64258V41.618C19.0724 42.102 19.466 42.4969 19.9513 42.4969C20.4364 42.4969 20.8302 42.102 20.8302 41.618V8.64258C20.8302 5.97398 19.68 3.41707 17.57 1.75781H43.8281C45.6656 1.75781 47.3952 2.47371 48.6961 3.77461C49.9969 5.07539 50.7129 6.80496 50.7129 8.64258V51.3574C50.7141 55.1375 47.6364 58.2247 43.8513 58.242C40.068 58.2243 36.9914 55.1344 36.9914 51.3503C36.9914 48.4263 39.3738 46.0329 42.3033 46.0129C45.0025 46.0302 47.1973 48.2447 47.1973 50.9515C47.1973 53.0331 45.4741 54.7266 43.3561 54.7266C42.0675 54.7266 41.0193 53.6878 41.0193 52.4109C41.0193 52.1273 41.088 51.8629 41.2238 51.625C41.4645 51.2033 41.3176 50.6666 40.896 50.4261C40.4742 50.1852 39.9375 50.3324 39.6971 50.7539C39.412 51.2534 39.2614 51.8263 39.2614 52.4111C39.2614 54.6572 41.0984 56.4845 43.3561 56.4845C46.4434 56.4845 48.9551 54.0025 48.9551 50.9516C48.9551 47.3041 46.0133 44.3177 42.3825 44.2575C42.3645 44.2564 42.3465 44.2548 42.3281 44.2548H14.625C10.7175 44.2548 7.5293 47.4173 7.5293 51.3505C7.5293 56.1263 11.4006 60.0002 16.1789 60.0002H43.8504H43.8518H43.8532H43.8564C43.8591 60.0002 43.8615 59.9999 43.8642 59.9999C46.1164 59.9873 48.2998 59.1077 49.944 57.4584C51.5256 55.8771 52.4707 53.7108 52.4707 51.3577V45.2461C52.4707 45.2391 52.4707 45.232 52.4707 45.225C52.4707 33.5355 52.4707 9.22969 52.4707 8.64258C52.4707 6.32402 51.5542 4.14598 49.9393 2.53125ZM16.1789 58.2422C12.3691 58.2422 9.28711 55.1577 9.28711 51.3503C9.28711 48.405 11.6701 46.0124 14.625 46.0124H37.6717C36.1799 47.3154 35.2337 49.2268 35.2337 51.3503C35.2337 54.1577 36.5835 56.66 38.6677 58.2422H16.1789Z" fill="white"/>
<path d="M26.9824 15.0586H42.2168C42.7023 15.0586 43.0957 14.6652 43.0957 14.1797C43.0957 13.6942 42.7023 13.3008 42.2168 13.3008H26.9824C26.4969 13.3008 26.1035 13.6942 26.1035 14.1797C26.1035 14.6652 26.4969 15.0586 26.9824 15.0586Z" fill="white"/>
<path d="M26.9824 19.7461H42.2168C42.7023 19.7461 43.0957 19.3527 43.0957 18.8672C43.0957 18.3817 42.7023 17.9883 42.2168 17.9883H26.9824C26.4969 17.9883 26.1035 18.3817 26.1035 18.8672C26.1035 19.3527 26.4969 19.7461 26.9824 19.7461Z" fill="white"/>
<path d="M26.9824 24.4346H42.2168C42.7023 24.4346 43.0957 24.0412 43.0957 23.5557C43.0957 23.0702 42.7023 22.6768 42.2168 22.6768H26.9824C26.4969 22.6768 26.1035 23.0702 26.1035 23.5557C26.1035 24.0412 26.4969 24.4346 26.9824 24.4346Z" fill="white"/>
<path d="M26.9824 29.1226H42.2168C42.7023 29.1226 43.0957 28.7292 43.0957 28.2437C43.0957 27.7581 42.7023 27.3647 42.2168 27.3647H26.9824C26.4969 27.3647 26.1035 27.7581 26.1035 28.2437C26.1035 28.7292 26.4969 29.1226 26.9824 29.1226Z" fill="white"/>
<path d="M26.9824 33.8101H42.2168C42.7023 33.8101 43.0957 33.4167 43.0957 32.9312C43.0957 32.4456 42.7023 32.0522 42.2168 32.0522H26.9824C26.4969 32.0522 26.1035 32.4456 26.1035 32.9312C26.1035 33.4167 26.4969 33.8101 26.9824 33.8101Z" fill="white"/>
<path d="M42.2169 36.7397H32.8423C32.3568 36.7397 31.9634 37.1331 31.9634 37.6187C31.9634 38.1042 32.3568 38.4976 32.8423 38.4976H42.2169C42.7024 38.4976 43.0958 38.1042 43.0958 37.6187C43.0958 37.1331 42.7024 36.7397 42.2169 36.7397Z" fill="white"/>
</g>
<defs>
<clipPath id="clip0">
<rect width="60" height="60" fill="white"/>
</clipPath>
</defs>
</svg>
