<svg width="60" height="60" viewBox="0 0 60 60" fill="none" xmlns="http://www.w3.org/2000/svg">
<path d="M55.6179 18.8672C52.2156 18.874 49.4462 16.1046 49.453 12.7023C49.454 12.2258 49.0506 11.8359 48.5741 11.8359H24.5515C24.0631 11.8359 23.6733 12.2357 23.6726 12.7242C23.6676 16.1164 20.9028 18.874 17.5077 18.8672C17.0311 18.8661 16.6414 19.2696 16.6414 19.7461V21.9709C16.6414 22.3562 16.8938 22.6989 17.2642 22.8048L17.2819 22.8099C17.8416 22.9704 18.3992 22.5502 18.3992 21.9679V20.5764C22.06 20.1697 24.9754 17.2545 25.3819 13.5936H47.7437C48.1503 17.2545 51.0657 20.1697 54.7265 20.5764V26.5323C51.0657 26.939 48.1503 29.8542 47.7437 33.5151H29.7744C29.2022 33.5151 28.7902 34.0566 28.9347 34.6103C28.9362 34.6163 28.9377 34.6221 28.9392 34.628C29.0382 35.0091 29.3855 35.2729 29.7791 35.2729H48.5741C49.0507 35.2729 49.454 34.883 49.453 34.4064C49.4462 31.0042 52.2156 28.2347 55.6179 28.2416C56.0945 28.2426 56.4843 27.8392 56.4843 27.3627V19.746C56.4843 19.2696 56.0945 18.8661 55.6179 18.8672Z" fill="white"/>
<path d="M43.3012 23.5547C43.3012 19.0314 40.2785 15.3516 36.563 15.3516C32.8474 15.3516 29.8247 19.0314 29.8247 23.5547C29.8247 28.0779 32.8474 31.7578 36.563 31.7578C40.2785 31.7578 43.3012 28.0779 43.3012 23.5547ZM31.5825 23.5547C31.5825 20.0007 33.8167 17.1094 36.563 17.1094C39.3093 17.1094 41.5434 20.0007 41.5434 23.5547C41.5434 27.1086 39.3093 30 36.563 30C33.8167 30 31.5825 27.1086 31.5825 23.5547Z" fill="white"/>
<path d="M37.4131 27.0989V26.869C38.2036 26.536 38.7601 25.7535 38.7601 24.8433C38.7601 23.6319 37.7745 22.6463 36.5632 22.6463C36.321 22.6463 36.1238 22.449 36.1238 22.2071C36.1238 21.9649 36.321 21.7677 36.5632 21.7677H37.7059C38.1914 21.7677 38.5848 21.3743 38.5848 20.8888C38.5848 20.4033 38.1914 20.01 37.7059 20.01H37.4131C37.4131 19.5245 37.0196 19.1313 36.5343 19.1313C36.0489 19.1313 35.6554 19.5245 35.6554 20.01V20.2087C34.8961 20.5549 34.3661 21.3195 34.3661 22.2071C34.3661 23.4184 35.3516 24.404 36.5631 24.404C36.8055 24.404 37.0026 24.6013 37.0026 24.8433C37.0026 25.0854 36.8052 25.2826 36.5631 25.2826H35.2449C34.7595 25.2826 34.366 25.676 34.366 26.1615C34.366 26.6471 34.7595 27.0403 35.2449 27.0403H35.6553V27.0989C35.6553 27.5843 36.0487 27.9778 36.5342 27.9778C37.0196 27.9778 37.4131 27.5843 37.4131 27.0989Z" fill="white"/>
<path d="M18.5194 15.5367C18.8626 15.1935 18.8626 14.637 18.5194 14.2938C18.3601 14.1347 18.3584 13.8748 18.5194 13.7139C18.6789 13.5543 18.9387 13.5531 19.0994 13.7139C19.4426 14.0571 19.9991 14.0571 20.3423 13.7139C20.6855 13.3706 20.6855 12.8141 20.3423 12.471C19.9328 12.0615 19.3884 11.8359 18.8092 11.8359C18.2301 11.8359 17.6857 12.0615 17.2763 12.4709C16.8668 12.8803 16.6414 13.4249 16.6414 14.0039C16.6414 14.5829 16.8668 15.1274 17.2763 15.5368C17.6196 15.8801 18.1762 15.8801 18.5194 15.5367Z" fill="white"/>
<path d="M54.6065 31.5723C54.2633 31.9155 54.2633 32.4721 54.6065 32.8153C54.7665 32.9751 54.7665 33.2354 54.6065 33.3954C54.4466 33.5552 54.1864 33.5552 54.0264 33.3954C53.6832 33.0521 53.1267 33.0521 52.7836 33.3954C52.4403 33.7386 52.4403 34.2951 52.7836 34.6383C53.2061 35.0608 53.7614 35.2723 54.3166 35.2723C54.8717 35.2723 55.427 35.0608 55.8497 34.6383C56.6948 33.7929 56.6948 32.4176 55.8497 31.5723C55.5062 31.2292 54.9498 31.2292 54.6065 31.5723Z" fill="white"/>
<path d="M54.0264 13.7139C54.1864 13.554 54.4466 13.554 54.6065 13.7139C54.7664 13.8737 54.7664 14.134 54.6065 14.2938C54.2633 14.6372 54.2634 15.1937 54.6065 15.5369C54.95 15.8801 55.5063 15.88 55.8495 15.5367C56.6947 14.6915 56.6947 13.316 55.8495 12.4709C55.0043 11.6256 53.6288 11.6256 52.7836 12.4709C52.4403 12.8141 52.4403 13.3706 52.7836 13.7138C53.1267 14.0571 53.6832 14.0571 54.0264 13.7139Z" fill="white"/>
<path d="M57.3633 8.32031H15.7625C14.3086 8.32031 13.1258 9.5032 13.1258 10.957V16.2302H10.4891C9.03516 16.2302 7.85238 17.4131 7.85238 18.867V20.3374C7.52731 20.1866 7.12922 20.2441 6.86109 20.5123C6.51785 20.8556 6.51785 21.412 6.86109 21.7553L8.10984 23.004C8.11113 23.0054 8.11266 23.0065 8.11395 23.0078C8.46855 23.3577 9.03363 23.3333 9.35273 23.004L10.6016 21.7553C10.9448 21.412 10.9448 20.8555 10.6016 20.5124C10.3335 20.2441 9.93539 20.1866 9.6102 20.3375V18.867C9.6102 18.3823 10.0044 17.988 10.4891 17.988H13.1258V24.1527C5.85422 24.4891 0 30.4663 0 37.9097C0 45.5023 6.17695 51.6792 13.7695 51.6792C17.6264 51.6792 21.1173 50.0846 23.6195 47.5208H34.6714C36.1253 47.5208 37.3082 46.3379 37.3082 44.8841V43.4136C37.6532 43.5738 38.045 43.4932 38.2996 43.2388C38.6428 42.8954 38.6428 42.339 38.2996 41.9958C36.72 40.4162 37.1155 40.8113 37.0411 40.7382C36.6953 40.4037 36.1496 40.4084 35.8077 40.747L34.5589 41.9958C34.2157 42.3391 34.2157 42.8955 34.5589 43.2388C34.8272 43.5068 35.2252 43.5645 35.5504 43.4136V44.8841C35.5504 45.3688 35.1561 45.763 34.6714 45.763H25.0732C26.4693 43.7596 27.3468 41.3698 27.5101 38.7886H57.3633C58.8171 38.7886 60 37.6057 60 36.1519V10.957C60 9.5032 58.8171 8.32031 57.3633 8.32031ZM13.7695 49.9214C7.14621 49.9214 1.75781 44.533 1.75781 37.9097C1.75781 31.2223 7.17914 25.8953 13.7583 25.8953C20.0353 25.8953 25.7812 30.891 25.7812 37.9097C25.7812 44.533 20.3929 49.9214 13.7695 49.9214ZM58.2422 36.1519C58.2422 36.6366 57.848 37.0308 57.3633 37.0308H27.5109C27.0727 30.1339 21.608 24.7383 14.8836 24.1847V10.957C14.8836 10.4723 15.2779 10.0781 15.7625 10.0781H57.3633C57.848 10.0781 58.2422 10.4723 58.2422 10.957V36.1519Z" fill="white"/>
<path d="M13.7694 39.6362H12.4512C11.9658 39.6362 11.5723 40.0297 11.5723 40.5151C11.5723 41.0006 11.9658 41.3938 12.4512 41.3938H12.8616V41.4524C12.8616 41.9379 13.255 42.3313 13.7405 42.3313C14.2257 42.3313 14.6191 41.9379 14.6191 41.4524V41.2226C15.4098 40.8896 15.9663 40.107 15.9663 39.1968C15.9663 37.9854 14.9807 36.9998 13.7694 36.9998C13.5271 36.9998 13.33 36.8027 13.33 36.5606C13.33 36.3185 13.5271 36.1212 13.7694 36.1212H14.9121C15.3976 36.1212 15.791 35.7278 15.791 35.2424C15.791 34.7568 15.3977 34.3635 14.9121 34.3635H14.6191C14.6191 33.878 14.2257 33.4849 13.7405 33.4849C13.2551 33.4849 12.8616 33.878 12.8616 34.3635V34.5622C12.1023 34.9085 11.5723 35.673 11.5723 36.5606C11.5723 37.7719 12.5578 38.7575 13.7693 38.7575C14.0116 38.7575 14.2087 38.9548 14.2087 39.1968C14.2089 39.4392 14.0115 39.6362 13.7694 39.6362Z" fill="white"/>
<path d="M13.7695 30.2871C13.2841 30.2871 12.8906 30.6805 12.8906 31.166C12.8906 31.6515 13.2841 32.0449 13.7695 32.0449C17.0004 32.0449 19.6289 34.6734 19.6289 37.9043C19.6289 41.1352 17.0004 43.7637 13.7695 43.7637C10.5387 43.7637 7.91016 41.1352 7.91016 37.9043C7.91016 37.4188 7.51664 37.0254 7.03125 37.0254C6.54586 37.0254 6.15234 37.4188 6.15234 37.9043C6.15234 42.1044 9.56941 45.5215 13.7695 45.5215C17.9696 45.5215 21.3867 42.1044 21.3867 37.9043C21.3867 33.7042 17.9696 30.2871 13.7695 30.2871Z" fill="white"/>
</svg>
