<svg width="60" height="60" viewBox="0 0 60 60" fill="none" xmlns="http://www.w3.org/2000/svg">
<circle cx="30" cy="30" r="30" fill="#4E6297"/>
<path d="M41.8768 36.9961L35.9487 31.6061C35.6684 31.3514 35.3002 31.2156 34.9217 31.2273C34.5432 31.239 34.1841 31.3973 33.9201 31.6688L30.4303 35.2578C29.5903 35.0974 27.9016 34.5709 26.1633 32.8369C24.4249 31.0971 23.8985 29.404 23.7424 28.5699L27.3285 25.0786C27.6003 24.8148 27.7589 24.4556 27.7706 24.077C27.7823 23.6984 27.6462 23.3301 27.3912 23.0501L22.0026 17.1234C21.7475 16.8425 21.3929 16.672 21.0141 16.6484C20.6353 16.6247 20.2623 16.7496 19.9741 16.9965L16.8095 19.7105C16.5574 19.9635 16.4069 20.3003 16.3866 20.6569C16.3647 21.0215 15.9476 29.6578 22.6443 36.3574C28.4864 42.198 35.8043 42.6253 37.8197 42.6253C38.1143 42.6253 38.2951 42.6165 38.3433 42.6136C38.6998 42.5936 39.0364 42.4425 39.2883 42.1892L42.0008 39.0232C42.2487 38.7359 42.3745 38.3632 42.3513 37.9844C42.3282 37.6057 42.1579 37.251 41.8768 36.9961Z" fill="white"/>
</svg>
